<svg width="59" height="56" viewBox="0 0 59 56" fill="none" xmlns="http://www.w3.org/2000/svg">
<path d="M59 56C59 52.0603 58.237 48.1593 56.7544 44.5195C55.2719 40.8797 53.099 37.5726 50.3596 34.7868C47.6203 32.001 44.3683 29.7913 40.7892 28.2836C37.2101 26.776 33.374 26 29.5 26C25.626 26 21.7899 26.776 18.2108 28.2836C14.6317 29.7913 11.3797 32.001 8.64035 34.7868C5.90102 37.5726 3.72807 40.8797 2.24555 44.5195C0.763039 48.1593 -3.38675e-07 52.0603 0 56H4.08313C4.08313 52.6056 4.74055 49.2445 6.01787 46.1085C7.29519 42.9725 9.16738 40.1231 11.5276 37.7229C13.8877 35.3228 16.6897 33.4188 19.7734 32.1199C22.8571 30.8209 26.1622 30.1523 29.5 30.1523C32.8378 30.1523 36.1429 30.8209 39.2266 32.1199C42.3103 33.4188 45.1123 35.3228 47.4724 37.7229C49.8326 40.1231 51.7048 42.9725 52.9821 46.1085C54.2594 49.2445 54.9169 52.6056 54.9169 56H59Z" fill="black"/>
<path d="M41 11C41 17.0751 36.0751 22 30 22C23.9249 22 19 17.0751 19 11C19 4.92487 23.9249 0 30 0C36.0751 0 41 4.92487 41 11ZM22.1008 11C22.1008 15.3626 25.6374 18.8992 30 18.8992C34.3626 18.8992 37.8992 15.3626 37.8992 11C37.8992 6.63737 34.3626 3.10076 30 3.10076C25.6374 3.10076 22.1008 6.63737 22.1008 11Z" fill="black"/>
</svg>
