<svg width="64" height="58" viewBox="0 0 64 58" fill="none" xmlns="http://www.w3.org/2000/svg">
<path d="M32.3523 45.3515C22.9656 45.2606 13.0081 45.1594 6.26829 45.0893C4.84553 45.0893 2 44.237 2 40.8277V12.4172V5.31456C2 4.20971 2.85366 2 6.26829 2H57.4877C58.5943 2 62.2303 2.7814 62.2303 5.31456C62.2303 17.0576 62.2303 33.8829 62.2303 40.8277C62.2303 42.7217 60.5734 45.5628 57.4877 45.5628C57.0705 45.5628 56.4271 45.5601 55.5907 45.5552M32.3523 45.3515V55.98M32.3523 45.3515C36.5801 45.3924 40.6921 45.4312 44.3422 45.4642M32.3523 55.98H23.8157M32.3523 55.98H40.4146M44.3422 45.4642C44.6278 45.4668 44.9107 45.4693 45.1905 45.4718M44.3422 45.4642L45.1905 45.4718M45.1905 45.4718C45.1685 45.6569 45.1571 45.8453 45.1571 46.0363C45.1571 48.6514 47.2804 50.7714 49.8997 50.7714C52.5189 50.7714 54.6422 48.6514 54.6422 46.0363C54.6422 45.8718 54.6338 45.7092 54.6174 45.549M45.1905 45.4718C45.47 43.1228 47.4718 41.3012 49.8997 41.3012C52.3541 41.3012 54.3731 43.1628 54.6174 45.549M55.5907 45.5552C55.2906 45.5534 54.9657 45.5514 54.6174 45.549M55.5907 45.5552L54.6174 45.549" stroke="black" stroke-width="3" stroke-linecap="round" stroke-linejoin="round"/>
</svg>
