<svg width="53" height="80" viewBox="0 0 53 80" fill="none" xmlns="http://www.w3.org/2000/svg">
<path d="M11.3085 20.3655V9.6069C11.3942 8.17241 12.4907 5.30345 16.1915 5.30345C19.8923 5.30345 20.9888 8.17241 21.0745 9.6069V5.30345C21.1649 3.86897 22.3223 1 26.2287 1C30.1351 1 31.2926 3.86897 31.383 5.30345V9.6069C31.4734 8.17241 32.6308 5.30345 36.5372 5.30345C40.4436 5.30345 41.5746 8.15449 41.665 9.58897V31.6621C41.7554 30.2276 42.9394 27.3586 46.8457 27.3586C50.7521 27.3586 51.9096 30.2276 52 31.6621V55.0621C52 61.4821 49.5561 67.3703 44.723 71.91C39.89 76.4496 33.335 79 26.5 79C19.665 79 13.11 76.4496 8.27696 71.91C3.44391 67.3703 1 61.4821 1 55.0621V20.3655C1 18.7517 2.24787 16.331 6.15425 16.331C10.0606 16.331 11.2181 18.931 11.3085 20.3655Z" fill="white"/>
<path d="M11.3085 38.9241V9.6069C11.3942 8.17241 12.4907 5.30345 16.1915 5.30345C19.8923 5.30345 20.9888 8.17241 21.0745 9.6069M21.0745 9.6069V37.3103M21.0745 9.6069V5.30345C21.1649 3.86897 22.3223 1 26.2287 1C30.1351 1 31.2926 3.86897 31.383 5.30345V9.6069M31.383 9.6069V36.7724M31.383 9.6069C31.4734 8.17241 32.6308 5.30345 36.5372 5.30345C40.4436 5.30345 41.5746 8.15449 41.665 9.58897V47.2441C37.9575 46.9752 29.484 48.3379 30.0266 58.0207M11.3085 20.3655C11.2181 18.931 10.0606 16.331 6.15425 16.331C2.24787 16.331 1 18.7517 1 20.3655V55.0621C1 61.4821 3.44391 67.3703 8.27696 71.91C13.11 76.4496 19.665 79 26.5 79C33.335 79 39.89 76.4496 44.723 71.91C49.5561 67.3703 52 61.4821 52 55.0621V31.6621C51.9096 30.2276 50.7521 27.3586 46.8457 27.3586C42.9394 27.3586 41.7554 30.2276 41.665 31.6621" stroke="black" stroke-linecap="round" stroke-linejoin="round"/>
</svg>
