<svg width="52" height="62" viewBox="0 0 52 62" fill="none" xmlns="http://www.w3.org/2000/svg">
<path d="M51 36.9459C51 43.3972 48.5783 49.3139 43.789 53.8756C38.9998 58.4373 33.0418 61 26.2688 61C19.4958 61 13.0002 58.4373 8.21099 53.8756C3.42175 49.3139 1 43.3972 1 36.9459V24.5135V8.2973V8.02703C1.08961 6.58559 2.23656 3.7027 6.10753 3.7027C9.9785 3.7027 11.1254 6.58559 11.2151 8.02703V5.59459V5.32432C11.3047 3.88288 12.1828 1 16.0538 1C19.9247 1 20.8029 3.88288 20.8925 5.32432C20.9821 3.88288 22.129 1 26 1C29.871 1 31.0179 3.88288 31.1075 5.32432V5.59459V8.2973C31.1971 6.85586 32.6129 3.97297 36.4839 3.97297C40.3548 3.97297 41.5018 6.85586 41.5914 8.2973V17.7568C45.6237 17.7568 51 18.5676 51 25.1366V36.9459Z" fill="white"/>
<path d="M20.8925 5.32432C20.8029 3.88288 19.9247 1 16.0538 1C12.1828 1 11.3047 3.88288 11.2151 5.32432V5.59459V8.2973M20.8925 5.32432C20.9821 3.88288 22.129 1 26 1C29.871 1 31.0179 3.88288 31.1075 5.32432V5.59459V18.5676V19.4609M20.8925 5.32432V5.59459V19.1081V24.5135M31.1075 8.2973C31.1971 6.85586 32.6129 3.97297 36.4839 3.97297C40.3548 3.97297 41.5018 6.85586 41.5914 8.2973V17.7568M1 24.5135C1.08961 25.955 2.23656 28.8378 6.10753 28.8378C9.9785 28.8378 11.1254 25.955 11.2151 24.5135M11.2151 24.5135C11.3047 25.955 12.1828 28.8378 16.0538 28.8378C19.9247 28.8378 20.8029 25.955 20.8925 24.5135M11.2151 24.5135V20.7297V8.2973M20.8925 24.5135C20.9821 25.955 22.129 28.8378 26 28.8378C28.855 28.8378 30.2282 27.2697 30.7883 25.8682M31.1075 19.4609C30.4788 20.2467 30.0323 21.3561 30.0323 22.8919C30.0323 23.4964 30.1014 24.0349 30.2237 24.5135C30.3563 25.0328 30.5514 25.4817 30.7883 25.8682M31.1075 19.4609C32.0721 18.2554 33.4654 17.8113 34.3333 17.7568H41.5914M30.7883 25.8682C31.7391 27.4192 33.3639 27.9661 34.3333 28.027H36.4839H39.4409C39.2617 28.9279 40.7849 32.9459 42.9355 34.2432C38.3656 33.7027 32.1324 34.2432 31.3763 42.0811M41.5914 17.7568C45.6237 17.7568 51 18.5676 51 25.1366V36.9459C51 43.3972 48.5782 49.3139 43.789 53.8756C38.9998 58.4373 33.0418 61 26.2688 61C19.4958 61 13.0002 58.4373 8.21099 53.8756C3.42175 49.3139 1 43.3972 1 36.9459V8.2973V8.02703C1.08961 6.58559 2.23656 3.7027 6.10753 3.7027C9.9785 3.7027 11.1254 6.58559 11.2151 8.02703V8.2973" stroke="black" stroke-linecap="round" stroke-linejoin="round"/>
</svg>
