<svg width="52" height="80" viewBox="0 0 52 80" fill="none" xmlns="http://www.w3.org/2000/svg">
<path d="M50.9999 54.9792C50.9999 61.4215 48.5585 67.33 43.7305 71.8854C38.9025 76.4408 32.3544 79 25.5266 79C18.6988 79 12.1507 76.4408 7.32272 71.8854C2.49473 67.33 1.13736 62.771 1.13736 56.3287V27.7197V26.1003C0.515062 23.5752 2.06593 21.0257 4.60134 20.4059C7.13675 19.7861 9.77024 21.2904 10.3925 23.8156C9.67903 20.9203 11.4572 17.9972 14.3642 17.2866C17.2712 16.576 20.2063 18.347 20.9198 21.2422V5.31834C21.0149 3.87889 22.232 1 26.3397 1C30.4474 1 31.6643 3.87889 31.7594 5.31834V32.5779L37.9922 8.82699C38.556 7.49813 40.6631 5.17836 44.5814 6.53019C48.4997 7.88201 48.6723 11.2141 48.2899 12.6055L42.5291 32.5386L42.9268 32.5779C48.4474 34.5723 50.6574 36.2609 50.9625 45.8028C50.9867 46.5609 50.9989 47.3685 50.9998 48.2299C50.9999 48.2305 50.9999 48.2312 51 48.2318L50.9999 48.3326V54.9792Z" fill="white"/>
<path d="M1.13736 26.1003V27.7197V56.3287C1.13736 62.771 2.49473 67.33 7.32272 71.8854C12.1507 76.4408 18.6988 79 25.5266 79C32.3544 79 38.9025 76.4408 43.7305 71.8854C48.5585 67.33 50.9999 61.4215 50.9999 54.9792V48.3326M1.13736 26.1003L3.89642 37.2961C4.51872 39.8212 7.07855 41.3658 9.61396 40.7461C12.1494 40.1263 13.7844 37.5791 13.1621 35.0539M1.13736 26.1003C0.515062 23.5752 2.06593 21.0257 4.60134 20.4059C7.13675 19.7861 9.77024 21.2904 10.3925 23.8156M20.9198 21.2422V5.31834C21.0149 3.87889 22.232 1 26.3397 1C30.4474 1 31.6643 3.87889 31.7594 5.31834V32.5779L37.9922 8.82699C38.556 7.49813 40.6631 5.17836 44.5814 6.53019C48.4997 7.88201 48.6723 11.2141 48.2899 12.6055L42.5291 32.5386M20.9198 21.2422L24.5371 35.9207C25.2506 38.816 23.4725 41.7391 20.5654 42.4498C17.6584 43.1604 14.7234 41.3894 14.0099 38.4941L13.1621 35.0539M20.9198 21.2422C20.2063 18.347 17.2712 16.576 14.3642 17.2866C11.4572 17.9972 9.67903 20.9203 10.3925 23.8156M10.3925 23.8156L13.1621 35.0539M50.9999 48.3326L51 48.2318C50.8363 46.5401 49.843 44.8717 48.2459 43.9695L40.7023 39.7085M50.9999 48.3326C50.9999 47.4327 50.9877 46.5909 50.9625 45.8028M50.9999 48.3326L50.9625 45.8028M40.7023 39.7085L35.0456 36.5132C32.4419 35.0425 29.1341 35.9524 27.6574 38.5456L26.2743 40.9743C24.7976 43.5675 25.7113 46.8619 28.3149 48.3326L31.2848 50.0102C29.6993 50.6769 26.1302 52.874 24.5371 56.3287M40.7023 39.7085L41.6488 35.8166L42.5291 32.5386M50.9625 45.8028C50.6574 36.2609 48.4474 34.5723 42.9268 32.5779L42.5291 32.5386" stroke="black" stroke-linecap="round" stroke-linejoin="round"/>
</svg>
